<?xml version="1.0" encoding="UTF-8"?>
<svg id="Layer_1" data-name="Layer 1" xmlns="http://www.w3.org/2000/svg" viewBox="0 0 200 200">
  <defs>
    <style>
      .cls-1 {
        fill: #08828c;
      }

      .cls-2 {
        fill: #acefef;
      }
    </style>
  </defs>
  <circle class="cls-2" cx="100" cy="100" r="98"/>
  <path class="cls-1" d="m62.32,121.21c0-14.14,0-28.28,0-42.43.04-.19.08-.38.11-.58.99-5.98,4.1-10.5,9.31-13.58,2.18-1.29,4.57-1.96,7.05-2.35,14.11,0,28.23,0,42.34,0,.12.03.23.07.36.09,9.29,1.27,16.16,9.12,16.17,18.51.01,12.76.06,25.53-.02,38.29-.04,7.02-3.27,12.33-9.18,16.03-2.24,1.4-4.73,2.11-7.32,2.5h-42.34c-.12-.03-.23-.07-.35-.09-7.18-1.18-12.16-5.15-14.96-11.87-.61-1.46-.89-3-1.15-4.54Zm34.76-4.92c3.5,0,7.01,0,10.51,0,2.13,0,3.43-1.27,3.33-3.41-.21-4.6-2.31-8.13-6.18-10.6-3.15-2.01-6.67-2.1-10.17-1.72-6.09.65-10.53,5.24-11.3,11.3-.41,3.24,1.21,4.54,3.89,4.46,3.3-.1,6.61-.02,9.92-.03Zm6.85-25.68c0-3.83-3.04-6.9-6.83-6.91-3.78-.01-6.93,3.14-6.93,6.95,0,3.77,3.1,6.83,6.92,6.83,3.84,0,6.84-3.01,6.84-6.87Zm16.57,2.21c0-.19-.15-.3-.27-.42-.64-.65-1.29-1.27-1.91-1.94-.37-.4-.62-.32-.96.04-.69.73-1.43,1.41-2.11,2.15-.4.44-.69.39-1.07-.02-.69-.73-1.43-1.41-2.14-2.12-.33-.33-.6-.35-.93,0-.61.63-1.23,1.26-1.87,1.87-.36.34-.31.58.02.9.76.73,1.48,1.5,2.24,2.23.35.33.33.58,0,.91-.76.73-1.48,1.5-2.25,2.22-.35.34-.34.58,0,.9.59.55,1.17,1.12,1.71,1.72.42.46.76.5,1.2.02.66-.72,1.39-1.38,2.06-2.09.35-.37.62-.37.97,0,.71.75,1.46,1.45,2.17,2.2.33.35.59.44.95.04.58-.63,1.2-1.23,1.82-1.82.37-.35.36-.64,0-.99-.7-.68-1.36-1.41-2.09-2.07-.49-.45-.44-.76.02-1.18.72-.66,1.39-1.38,2.08-2.07.14-.14.31-.25.34-.47Z"/>
</svg>