<?xml version="1.0" encoding="UTF-8"?>
<svg id="Layer_1" data-name="Layer 1" xmlns="http://www.w3.org/2000/svg" viewBox="0 0 200 200">
  <defs>
    <style>
      .cls-1 {
        fill: #08828c;
      }

      .cls-2 {
        fill: #acefef;
      }
    </style>
  </defs>
  <circle class="cls-2" cx="100" cy="100" r="98"/>
  <g>
    <path class="cls-1" d="m82.02,142.55c-.24-.07-.47-.16-.71-.22-3.53-.97-5.21-4.04-4.1-7.53.54-1.71,1.59-3.16,2.47-4.69,4.93-8.56,9.86-17.11,14.81-25.65.94-1.63,2.24-2.89,4.12-3.39,2.46-.64,4.89.34,6.45,2.8,1.51,2.38,2.88,4.85,4.29,7.29,4.08,7.06,8.16,14.13,12.24,21.2.8,1.38,1.47,2.79,1.48,4.43,0,2.39-1.37,4.42-3.6,5.27-.46.18-.94.32-1.41.49h-36.05Z"/>
    <path class="cls-1" d="m57.44,96.71c.32-1.71.44-3.45.8-5.16,1.57-7.58,4.91-14.24,10.1-19.98,6.88-7.6,15.4-12.24,25.53-13.66,12.3-1.72,23.41,1.3,33.07,9.18,8.15,6.65,13.23,15.22,14.96,25.59,2.11,12.66-.87,24.11-8.88,34.19-.81,1.02-1.66,2.01-2.59,2.92-1.1,1.07-2.61,1.13-3.66.16-1.06-.98-1.13-2.46-.08-3.63,1.87-2.08,3.67-4.21,5.15-6.6,2.93-4.74,4.71-9.87,5.32-15.41.99-9.04-.92-17.42-6-24.96-6.16-9.15-14.74-14.74-25.69-16.35-11.8-1.73-22.2,1.51-31,9.6-6.75,6.2-10.65,13.92-11.72,23.02-1.2,10.25,1.48,19.46,7.77,27.63.76.98,1.61,1.9,2.45,2.82,1.16,1.25,1.25,2.8.19,3.84-1.07,1.04-2.64.94-3.83-.31-3.94-4.13-7.01-8.83-9.07-14.17-1.42-3.69-2.34-7.5-2.68-11.44-.02-.22-.09-.43-.14-.64v-6.64Z"/>
    <path class="cls-1" d="m131.81,100.04c-.04,7.14-2.17,13.6-6.47,19.32-.74.98-1.58,1.84-2.98,1.49-1.9-.47-2.61-2.5-1.4-4.13,1.23-1.65,2.4-3.33,3.23-5.21,3.73-8.36,3.56-16.65-.93-24.64-4.21-7.51-10.74-11.96-19.23-13.32-7.98-1.28-15.14.74-21.35,5.95-5.47,4.59-8.61,10.47-9.42,17.54-.8,7.01,1,13.38,5.17,19.07.18.25.37.48.55.73.84,1.18.65,2.66-.44,3.48-1.08.81-2.62.61-3.5-.48-1.39-1.73-2.56-3.61-3.56-5.59-2.17-4.33-3.31-8.94-3.38-13.75-.08-5.87,1.34-11.42,4.35-16.49,3.72-6.28,8.97-10.83,15.75-13.55,3.23-1.3,6.59-1.97,10.09-2.2,8.27-.55,15.53,1.97,21.86,7.12,6.43,5.23,10.2,12.05,11.39,20.28.11.74.2,1.48.25,2.22.04.72,0,1.44,0,2.16Z"/>
    <path class="cls-1" d="m78.87,100.2c0-10.87,7.86-19.75,18.51-21.11,6.2-.79,11.68.86,16.4,4.93,4.56,3.94,7.01,8.95,7.3,15,.15,3.15-.32,6.17-1.53,9.08-.16.38-.32.77-.54,1.12-.74,1.17-2.1,1.58-3.24.99-1.15-.59-1.68-1.94-1.18-3.19.63-1.55,1.2-3.1,1.38-4.77.65-5.84-1.16-10.76-5.63-14.61-2.8-2.41-6.11-3.53-9.8-3.77-8.2-.53-15.86,5.95-16.73,14.47-.31,3.05.27,5.88,1.45,8.64.42.98.25,1.85-.45,2.61-1.1,1.21-3.1.98-3.87-.46-1.03-1.93-1.56-4.02-1.89-6.16-.15-.99-.23-1.98-.18-2.77Z"/>
  </g>
</svg>