<?xml version="1.0" encoding="UTF-8"?>
<svg id="Layer_1" data-name="Layer 1" xmlns="http://www.w3.org/2000/svg" viewBox="0 0 200 200">
  <defs>
    <style>
      .cls-1 {
        fill: #044a4c;
      }

      .cls-2 {
        fill: #08828c;
      }

      .cls-3 {
        fill: #2faaad;
      }

      .cls-4 {
        fill: #acefef;
      }

      .cls-5 {
        fill: #13496b;
      }
    </style>
  </defs>
  <circle class="cls-4" cx="100" cy="100" r="98"/>
  <g>
    <path class="cls-2" d="m95.89,122.33c2.78,0,5.56,0,8.34,0,0,3.37,0,6.73,0,10.1-.3,0-.61.02-.91.02-2.48.02-4.97.03-7.45.05l.02-.08c0-3.36,0-6.72,0-10.08Z"/>
    <path class="cls-3" d="m138.09,112.6c-12.37,0-24.74,0-37.11,0-.33,0-.66.02-.99.03,0,0,.01-.07.01-.07-.08,0-.15.03-.23.03-12.93,0-25.85,0-38.78,0v5.48c.34.8.66,1.62,1.22,2.31,1.07,1.33,2.42,2.37,4.15,2.38,6.77.06,13.55,0,20.32,0,4.44,0,8.88,0,13.32,0,0,.02,0,.03,0,.03,2.78,0,5.56,0,8.34,0,.28-.01.56-.03.83-.03,7.73,0,15.47,0,23.2,0,.43,0,.86-.03,1.29-.05.05-.03.1-.06.15-.09,2.13-.17,4.33-2.02,4.86-4.12.05-.21.09-.38.32-.45v-5.47c-.3,0-.61.02-.91.02Zm-38.08,10.13c0-3.37-.01-6.74-.02-10.1,0,3.37.01,6.74.02,10.1,0,0,0,0,0,0Z"/>
    <path class="cls-2" d="m136.15,63.65c-.87-.56-1.83-.89-2.87-.89-10.99,0-21.98,0-32.97,0-.1,0-.2.01-.3.02h0c-3.65,0-7.31-.02-10.96-.02-7.1,0-14.21.06-21.31-.03-2.93-.04-5.7,1.48-6.57,4.66-.02.09-.1.16-.15.25v44.94c12.93,0,25.85,0,38.78,0,.08,0,.15-.02.23-.03,0-.12,0-.24,0-.36,0,.12,0,.24,0,.36v.07c.32,0,.65-.03.97-.03,12.37,0,24.74,0,37.11,0,.3,0,.61-.02.91-.02v-44.79c-.43-1.74-1.32-3.16-2.85-4.14Zm-39.96,32.76l.02.05s0,0,0,0c0,0-.02-.05-.02-.05Zm12.19-13.17c0-.17.02-.34.03-.52,0,.17-.02.34-.03.52,0,.21,0,.43.08.63-.07-.21-.08-.42-.08-.63Zm-8.38-16.41c0,1.35,0,2.7.01,4.06-.01-1.35-.01-2.7-.01-4.06Zm-3.77,34.58c.02.1.04.2.07.3-.03-.1-.05-.2-.07-.3Z"/>
    <path class="cls-5" d="m133.67,122.73c.05-.03.1-.06.15-.09-.03.07-.05.14-.15.09Z"/>
    <rect class="cls-2" x="84.15" y="131.78" width="31.24" height="5.49" rx="2.74" ry="2.74"/>
    <g>
      <path class="cls-1" d="m102.74,77.95v-5.45h-21.03v21.03h11.22c-.16-.84-.25-1.7-.25-2.59,0-6.25,4.27-11.5,10.06-12.99Z"/>
      <path class="cls-3" d="m106.1,77.53c-1.16,0-2.28.15-3.35.42v15.58h-9.81c1.21,6.17,6.64,10.82,13.16,10.82,7.41,0,13.41-6,13.41-13.41s-6-13.41-13.41-13.41Z"/>
    </g>
  </g>
</svg>