<?xml version="1.0" encoding="UTF-8"?>
<svg id="Layer_1" data-name="Layer 1" xmlns="http://www.w3.org/2000/svg" viewBox="0 0 200 200">
  <defs>
    <style>
      .cls-1 {
        fill: #08828c;
      }

      .cls-2 {
        fill: #acefef;
      }
    </style>
  </defs>
  <circle class="cls-2" cx="100" cy="100" r="98"/>
  <g>
    <path class="cls-1" d="m98.45,100.51c0-1.88-.02-3.77.01-5.65.01-.74-.23-1.05-1-1.19-4.42-.78-8.11-2.91-11.08-6.28-.83-.94-.81-1.07.32-1.53,2.86-1.17,5.71-2.35,8.58-3.5,3.85-1.54,7.74-1.63,11.63-.15,2.82,1.07,5.62,2.2,8.44,3.25.88.33.9.68.35,1.36-3.25,3.99-7.43,6.31-12.5,7.01-.82.11-1.07.42-1.06,1.21.03,3.73.02,7.47,0,11.2,0,.68.24,1.11.8,1.49,3.06,2.06,6.11,4.14,9.14,6.25.65.46.97.36,1.44-.26,3.88-5.08,9.1-7.67,15.44-7.65,9.09.03,17.01,6.94,18.59,15.92.56,3.21.32,6.35-.74,9.45-.34.98-.74,1.26-1.77.92-3.4-1.13-6.83-2.18-10.25-3.23-3.92-1.2-7.84-1.14-11.7.24-3.47,1.25-6.92,2.57-10.35,3.92-.85.33-1.26.18-1.6-.68-1.8-4.55-1.97-9.13-.36-13.75.31-.89.12-1.34-.61-1.83-3.07-2.05-6.12-4.13-9.16-6.24-.59-.41-1.03-.41-1.63-.05-3.14,1.88-6.28,3.74-9.46,5.56-.76.44-.93.85-.64,1.7,1.44,4.21,1.4,8.43,0,12.66-.3.9-.65,1.16-1.6.83-3.08-1.07-6.2-2.03-9.3-3.06-4.64-1.54-9.21-1.39-13.72.48-3.05,1.27-6.11,2.5-9.13,3.82-.91.4-1.29.16-1.67-.7-4.99-11.27,1.53-23.91,13.79-26.47,7.54-1.57,13.66,1.05,18.55,6.83,1.27,1.5.84,1.38,2.4.48,2.98-1.73,5.93-3.5,8.92-5.21.7-.4.99-.88.97-1.7-.06-1.81-.02-3.63-.02-5.44Zm-32.9,19.03c0,3.18,2.59,5.81,5.72,5.81,3.11,0,5.68-2.6,5.67-5.73,0-3.17-2.65-5.87-5.73-5.83-3.11.04-5.66,2.63-5.66,5.76Zm63.33-4.76c-3.22-.02-5.77,2.48-5.79,5.68-.03,3.07,2.59,5.73,5.66,5.75,3.22.02,5.73-2.48,5.73-5.72,0-3.21-2.43-5.7-5.59-5.72Z"/>
    <path class="cls-1" d="m100.87,55.79c10.77-.34,19.08,9.45,19.03,19.08-.01,2.53-.47,4.93-1.44,7.26-.31.75-.69.92-1.46.61-2.89-1.17-5.81-2.28-8.72-3.4-4.94-1.9-9.84-1.74-14.71.28-2.88,1.2-5.79,2.34-8.66,3.55-.85.36-1.24.17-1.62-.67-4.95-10.9,2.29-24.53,14.09-26.49,1.16-.19,2.33-.22,3.5-.22Zm-.03,8.63c-3.08,0-5.63,2.5-5.66,5.59-.03,3.23,2.56,5.85,5.77,5.85,3.11,0,5.63-2.49,5.66-5.58.03-3.2-2.58-5.84-5.77-5.85Z"/>
    <path class="cls-1" d="m129.33,131.55c1.43-.09,2.86.13,4.26.56,3.32,1.02,6.64,2.05,9.95,3.09,1.14.36,1.17.48.5,1.42-7.04,9.83-22.52,10.17-30.05.68-.43-.54-.66-.89.22-1.21,3.3-1.21,6.57-2.47,9.86-3.69,1.68-.62,3.41-.94,5.25-.85Z"/>
    <path class="cls-1" d="m71.43,143.39c-5.95-.23-10.78-2.33-14.59-6.64-.31-.35-.84-.79,0-1.13,3.71-1.5,7.32-3.27,11.14-4.48,2.95-.93,5.95-.78,8.89.16,3.14,1,6.26,2.05,9.41,3.04.81.25.94.54.4,1.24-3.42,4.45-7.89,7.03-13.48,7.64-.67.07-1.34.14-1.76.18Z"/>
    <path class="cls-1" d="m71.29,117.04c1.43-.01,2.58,1.12,2.57,2.54,0,1.38-1.11,2.49-2.49,2.51-1.45.02-2.61-1.06-2.64-2.48-.03-1.38,1.14-2.55,2.56-2.56Z"/>
    <path class="cls-1" d="m131.37,120.47c.01,1.38-1.2,2.62-2.55,2.6-1.38-.02-2.46-1.12-2.48-2.52-.02-1.47,1.04-2.61,2.46-2.63,1.39-.03,2.56,1.14,2.57,2.55Z"/>
    <path class="cls-1" d="m103.46,70.14c.01,1.39-1.18,2.6-2.56,2.6-1.35,0-2.57-1.25-2.55-2.62.02-1.34,1.2-2.52,2.52-2.55,1.38-.02,2.59,1.17,2.6,2.56Z"/>
  </g>
</svg>