<?xml version="1.0" encoding="UTF-8"?>
<svg id="Layer_1" data-name="Layer 1" xmlns="http://www.w3.org/2000/svg" viewBox="0 0 200 200">
  <defs>
    <style>
      .cls-1 {
        fill: #08828c;
      }

      .cls-2 {
        fill: #acefef;
      }
    </style>
  </defs>
  <circle class="cls-2" cx="100" cy="100" r="98"/>
  <g>
    <path class="cls-1" d="m86.83,60.11h5.6c1.69.27,3.38.52,5.03.98,13.51,3.76,22.84,16.86,21.52,30.99-.48,5.15-2.08,9.89-5.02,14.13-8.17,11.76-23.27,15.93-36.47,10.08-1.52-.68-2.7-.52-3.97.59-3.18,2.79-6.91,3.62-11.03,2.78-1-.2-1-.26-.62-1.16,2.56-6.1,2.66-12.23.24-18.4-1.82-4.64-2.49-9.46-1.73-14.36,1.77-11.53,8.19-19.47,18.99-23.86,2.39-.97,4.92-1.43,7.47-1.78Zm-12.89,33.6c2.34,0,4.13-1.79,4.13-4.13,0-2.32-1.81-4.11-4.16-4.1-2.32,0-4.16,1.85-4.15,4.13.02,2.31,1.85,4.1,4.18,4.1Zm15.66,0c2.33,0,4.16-1.8,4.17-4.11.01-2.28-1.84-4.12-4.15-4.12-2.35,0-4.15,1.78-4.15,4.11,0,2.33,1.79,4.13,4.13,4.12Zm11.57-4.12c0,2.35,1.78,4.13,4.14,4.12,2.3,0,4.11-1.78,4.16-4.07.05-2.28-1.81-4.15-4.14-4.16-2.36-.01-4.15,1.75-4.15,4.11Z"/>
    <path class="cls-1" d="m139.92,111.48c-.36,4.22-1.92,8.16-2.92,12.23-1.23,4.99-.67,9.89,1.33,14.62.43,1.01.43,1.04-.64,1.26-4.13.84-7.84-.05-11.02-2.83-1.21-1.06-2.35-1.27-3.82-.6-13.47,6.13-29.37,1.34-37.26-11.2-.19-.3-.6-.64-.42-.94.21-.35.72-.13,1.08-.1,5.71.52,11.27-.13,16.54-2.4,11.66-5.04,18.71-13.84,21.05-26.35.69-3.7.65-7.43.05-11.15-.05-.29-.24-.68.05-.87.28-.19.58.13.84.27,8.62,4.9,13.71,12.21,15.06,22.07.02.18.07.36.1.53v5.45Z"/>
  </g>
</svg>