<?xml version="1.0" encoding="utf-8"?>
<!-- Generator: Adobe Illustrator 27.4.1, SVG Export Plug-In . SVG Version: 6.00 Build 0)  -->
<svg version="1.1" id="Layer_1" xmlns="http://www.w3.org/2000/svg" xmlns:xlink="http://www.w3.org/1999/xlink" x="0px" y="0px"
	 viewBox="0 0 200 200" style="enable-background:new 0 0 200 200;" xml:space="preserve">
<style type="text/css">
	.st0{fill:#08828C;}
	.st1{fill:#ACEFEF;}
	.st2{fill:#5B5B5B;}
	.st3{fill:#2FAAAD;}
	.st4{fill:#13496B;}
	.st5{fill:#044A4C;}
	.st6{fill:#5AE4A7;}
	.st7{fill:#C3F4E5;}
	.st8{fill:#56D1BD;}
	.st9{fill:none;stroke:#1A2E35;stroke-miterlimit:10;}
	.st10{fill:none;stroke:#1A2E35;stroke-linecap:round;stroke-linejoin:round;stroke-miterlimit:10;}
	.st11{fill:#FFFFFF;stroke:#1A2E35;stroke-miterlimit:10;}
	.st12{fill:none;stroke:#56D1BD;stroke-miterlimit:10;}
	.st13{fill:none;stroke:#1A2E35;stroke-linecap:round;stroke-linejoin:round;}
	.st14{fill:#FFFFFF;stroke:#1A2E35;stroke-linecap:round;stroke-linejoin:round;stroke-miterlimit:10;}
	.st15{fill:#56D1BD;stroke:#1A2E35;stroke-linecap:round;stroke-linejoin:round;stroke-miterlimit:10;}
	.st16{fill:none;stroke:#1A2E35;stroke-linecap:round;stroke-linejoin:round;stroke-dasharray:2.0041,4.0082;}
	.st17{fill:#FFFFFF;}
	.st18{fill:#EFB533;}
	.st19{fill:#EF8456;}
	.st20{fill:#E46449;}
	.st21{fill:#282828;stroke:#FFFFFF;stroke-width:1.5;stroke-miterlimit:10;}
	.st22{fill:#56D1BD;stroke:#1A2E35;stroke-linecap:round;stroke-linejoin:round;}
	.st23{fill:#1A2E35;stroke:#1A2E35;stroke-linecap:round;stroke-linejoin:round;}
	.st24{clip-path:url(#SVGID_00000129184957796238126480000002905993673496169881_);}
	.st25{fill:#32D951;}
	
		.st26{fill:none;stroke:#1A2E35;stroke-width:1.1031;stroke-linecap:round;stroke-linejoin:round;stroke-miterlimit:10;stroke-dasharray:4.4124;}
	.st27{fill:#FFFFFF;stroke:#1A2E35;stroke-width:1.1031;stroke-linecap:round;stroke-linejoin:round;stroke-miterlimit:10;}
	.st28{fill:#1A2E35;}
	.st29{opacity:0.2;fill:#FFFFFF;}
	.st30{fill:#FFFFFF;stroke:#1A2E35;stroke-width:1.1031;stroke-miterlimit:10;}
	.st31{fill:none;stroke:#1A2E35;stroke-width:1.1031;stroke-miterlimit:10;}
	.st32{fill:#5AE4A7;stroke:#1A2E35;stroke-width:1.1031;stroke-miterlimit:10;}
	.st33{opacity:0.2;}
	.st34{fill:#EFB533;stroke:#1A2E35;stroke-width:1.1031;stroke-miterlimit:10;}
	.st35{opacity:0.71;fill:#1A2E35;}
	.st36{fill:#FFFFFF;stroke:#1C1C1B;stroke-width:1.1031;stroke-miterlimit:10;}
	.st37{opacity:0.71;}
	.st38{clip-path:url(#SVGID_00000047757733378415873970000015168121561045482412_);}
</style>
<g>
	<circle class="st1" cx="100" cy="100" r="98"/>
</g>
<g>
	<path class="st0" d="M57.24,89.05c0.77-2.78,2.43-4.74,5.26-5.53c1.57-0.43,3.16-0.37,4.65,0.35c0.59,0.29,1,0.21,1.51-0.17
		c4.05-3.04,8.11-6.08,12.19-9.08c0.54-0.39,0.46-0.78,0.33-1.29c-1.05-4.01,1.34-7.98,5.34-8.9c4.48-1.04,8.83,2.39,8.83,7.01
		c0,0.73,0.23,1.09,0.87,1.4c2.91,1.4,5.8,2.83,8.68,4.29c0.54,0.27,0.79,0.18,1.14-0.3c2.53-3.46,6.97-4.07,10.37-1.43
		c0.49,0.38,0.87,0.44,1.41,0.11c3.46-2.08,6.93-4.14,10.4-6.19c0.39-0.23,0.57-0.46,0.43-0.93c-1.04-3.7,1.46-7.73,5.26-8.67
		c3.79-0.94,7.48,1.22,8.69,5.14c0.05,0.16,0.1,0.32,0.16,0.47c0,0.95,0,1.89,0,2.84c-0.41,1.35-0.98,2.6-1.99,3.62
		c-2.14,2.16-5.41,2.76-8.16,1.44c-0.54-0.26-0.93-0.25-1.45,0.06c-3.77,2.27-7.55,4.51-11.34,6.74c-0.51,0.3-0.74,0.63-0.75,1.24
		c-0.08,3.32-2.61,6.22-5.85,6.79c-3.4,0.6-6.77-1.18-7.96-4.35c-0.34-0.9-0.87-1.38-1.68-1.78c-3.23-1.56-6.45-3.15-9.65-4.77
		c-0.59-0.29-0.99-0.32-1.56,0.1c-2.14,1.56-4.48,1.87-6.94,0.84c-0.51-0.22-0.87-0.13-1.29,0.19c-4.12,3.09-8.24,6.17-12.38,9.24
		c-0.4,0.29-0.59,0.56-0.44,1.1c1.16,4.13-1.62,7.9-5.03,8.8c-3.9,1.02-7.64-1.11-8.87-5.07c-0.05-0.16-0.11-0.32-0.16-0.47
		C57.24,90.94,57.24,90,57.24,89.05z"/>
	<path class="st0" d="M142.76,138.82c-0.61,1.26-1.69,1.68-3.01,1.67c-2.73-0.01-5.45,0.01-8.18-0.01
		c-2.27-0.01-3.19-0.94-3.19-3.21c0-15.38,0-30.76,0-46.14c0-2.18,0.94-3.12,3.08-3.12c2.81,0,5.62,0.02,8.43-0.01
		c1.35-0.02,2.31,0.49,2.87,1.72C142.76,106.09,142.76,122.45,142.76,138.82z"/>
	<path class="st0" d="M57.24,113.43c0.6-1.25,1.62-1.73,2.98-1.71c2.78,0.03,5.56,0,8.34,0.01c2.05,0.01,3.05,0.97,3.05,3.01
		c0.01,7.59,0.01,15.18,0,22.78c0,1.93-0.93,2.91-2.85,2.95c-2.95,0.05-5.9,0.02-8.84,0.01c-1.22,0-2.13-0.56-2.68-1.66
		C57.24,130.36,57.24,121.9,57.24,113.43z"/>
	<path class="st0" d="M80.91,116.61c0-6.93,0-13.86,0-20.79c0-2.13,0.91-3.07,3.04-3.08c2.78-0.02,5.57-0.02,8.35,0
		c2.11,0.01,3.06,0.98,3.06,3.08c0,13.86,0,27.72,0,41.59c0,2.11-0.95,3.07-3.06,3.09c-2.78,0.02-5.57,0.02-8.35,0
		c-2.12-0.02-3.04-0.96-3.04-3.08C80.91,130.47,80.91,123.54,80.91,116.61z"/>
	<path class="st0" d="M119.09,121.39c0,5.34,0,10.68,0,16.03c0,2.12-0.91,3.05-3.05,3.07c-2.78,0.02-5.57,0.02-8.35,0
		c-2.1-0.01-3.05-0.99-3.05-3.1c0-10.71,0-21.43,0-32.14c0-2.03,0.99-3.01,3.03-3.02c2.78-0.01,5.57-0.01,8.35,0
		c2.12,0.01,3.07,0.95,3.07,3.05C119.09,110.65,119.09,116.02,119.09,121.39z"/>
</g>
</svg>
