<?xml version="1.0" encoding="utf-8"?>
<!-- Generator: Adobe Illustrator 27.4.1, SVG Export Plug-In . SVG Version: 6.00 Build 0)  -->
<svg version="1.1" id="Layer_1" xmlns="http://www.w3.org/2000/svg" xmlns:xlink="http://www.w3.org/1999/xlink" x="0px" y="0px"
	 viewBox="0 0 200 200" style="enable-background:new 0 0 200 200;" xml:space="preserve">
<style type="text/css">
	.st0{fill:#08828C;}
	.st1{fill:#ACEFEF;}
	.st2{fill:#5B5B5B;}
	.st3{fill:#2FAAAD;}
	.st4{fill:#13496B;}
	.st5{fill:#044A4C;}
	.st6{fill:#5AE4A7;}
	.st7{fill:#C3F4E5;}
	.st8{fill:#56D1BD;}
	.st9{fill:none;stroke:#1A2E35;stroke-miterlimit:10;}
	.st10{fill:none;stroke:#1A2E35;stroke-linecap:round;stroke-linejoin:round;stroke-miterlimit:10;}
	.st11{fill:#FFFFFF;stroke:#1A2E35;stroke-miterlimit:10;}
	.st12{fill:none;stroke:#56D1BD;stroke-miterlimit:10;}
	.st13{fill:none;stroke:#1A2E35;stroke-linecap:round;stroke-linejoin:round;}
	.st14{fill:#FFFFFF;stroke:#1A2E35;stroke-linecap:round;stroke-linejoin:round;stroke-miterlimit:10;}
	.st15{fill:#56D1BD;stroke:#1A2E35;stroke-linecap:round;stroke-linejoin:round;stroke-miterlimit:10;}
	.st16{fill:none;stroke:#1A2E35;stroke-linecap:round;stroke-linejoin:round;stroke-dasharray:2.0041,4.0082;}
	.st17{fill:#FFFFFF;}
	.st18{fill:#EFB533;}
	.st19{fill:#EF8456;}
	.st20{fill:#E46449;}
	.st21{fill:#282828;stroke:#FFFFFF;stroke-width:1.5;stroke-miterlimit:10;}
	.st22{fill:#56D1BD;stroke:#1A2E35;stroke-linecap:round;stroke-linejoin:round;}
	.st23{fill:#1A2E35;stroke:#1A2E35;stroke-linecap:round;stroke-linejoin:round;}
	.st24{clip-path:url(#SVGID_00000036239763433868986250000002644392455144992405_);}
	.st25{fill:#32D951;}
	
		.st26{fill:none;stroke:#1A2E35;stroke-width:1.1031;stroke-linecap:round;stroke-linejoin:round;stroke-miterlimit:10;stroke-dasharray:4.4124;}
	.st27{fill:#FFFFFF;stroke:#1A2E35;stroke-width:1.1031;stroke-linecap:round;stroke-linejoin:round;stroke-miterlimit:10;}
	.st28{fill:#1A2E35;}
	.st29{opacity:0.2;fill:#FFFFFF;}
	.st30{fill:#FFFFFF;stroke:#1A2E35;stroke-width:1.1031;stroke-miterlimit:10;}
	.st31{fill:none;stroke:#1A2E35;stroke-width:1.1031;stroke-miterlimit:10;}
	.st32{fill:#5AE4A7;stroke:#1A2E35;stroke-width:1.1031;stroke-miterlimit:10;}
	.st33{opacity:0.2;}
	.st34{fill:#EFB533;stroke:#1A2E35;stroke-width:1.1031;stroke-miterlimit:10;}
	.st35{opacity:0.71;fill:#1A2E35;}
	.st36{fill:#FFFFFF;stroke:#1C1C1B;stroke-width:1.1031;stroke-miterlimit:10;}
	.st37{opacity:0.71;}
	.st38{clip-path:url(#SVGID_00000137133527948937127200000009348886150528888972_);}
</style>
<g>
	<circle class="st1" cx="100" cy="100" r="98"/>
</g>
<g>
	<path class="st0" d="M131.23,75.22c-23.15-0.01-46.3-0.01-69.44,0c-5.33,0-9.16,3.81-9.17,9.12c-0.01,15.46-0.01,30.92,0,46.39
		c0,0.61,0.01,1.23,0.12,1.82c0.86,4.29,4.45,7.26,8.81,7.27c11.63,0.01,23.27,0,34.9,0c11.6,0,23.21,0.01,34.81,0
		c5.28,0,9.15-3.87,9.15-9.18c0.01-15.4,0.01-30.8,0-46.2C140.42,79.07,136.58,75.22,131.23,75.22z"/>
	<path class="st0" d="M65.72,69.51c0.27-0.02,0.55,0,0.82,0c9.97,0,19.93,0,29.9,0c10.21,0,20.42,0,30.63,0
		c1.13,0,1.23-0.13,0.69-1.1c-1.71-3.09-4.27-4.86-7.87-4.87c-9.54-0.02-19.08-0.01-28.62-0.01c-6.17,0-12.34-0.07-18.5,0.03
		c-3.55,0.06-6.01,2-7.61,5.11C64.81,69.32,65.04,69.55,65.72,69.51z"/>
	<g>
		<g id="XMLID_00000144337904272559562550000011423780920279797428_">
			<path class="st1" d="M88.05,128.81c4.35,0,8.7,0.01,13.05,0c2.65-0.01,4.26-1.58,4.14-4.24c-0.26-5.71-2.86-10.09-7.67-13.16
				c-3.91-2.5-8.29-2.6-12.62-2.14c-7.56,0.81-13.07,6.51-14.03,14.04c-0.51,4.02,1.51,5.64,4.83,5.54
				C79.84,128.72,83.95,128.81,88.05,128.81z M96.56,96.92c0-4.75-3.78-8.57-8.49-8.58c-4.7-0.01-8.61,3.9-8.6,8.63
				c0,4.69,3.85,8.48,8.6,8.48C92.84,105.45,96.56,101.71,96.56,96.92z"/>
		</g>
		<g>
			<path class="st1" d="M111.02,110.98c2.78,0,5.56,0,8.34,0c1.69,0,2.72-1.01,2.64-2.71c-0.17-3.65-1.83-6.45-4.9-8.41
				c-2.5-1.6-5.29-1.66-8.07-1.36c-4.83,0.52-8.35,4.16-8.97,8.97c-0.33,2.57,0.96,3.6,3.09,3.54
				C105.77,110.92,108.39,110.98,111.02,110.98z M116.45,90.61c0-3.04-2.42-5.47-5.42-5.48c-3-0.01-5.5,2.49-5.5,5.51
				c0,2.99,2.46,5.42,5.49,5.42C114.07,96.06,116.45,93.67,116.45,90.61z"/>
		</g>
		<g>
			<g>
				<path class="st1" d="M88.78,125.45c0.18-0.06,0.32-0.18,0.46-0.32c1.48-1.48,2.96-2.96,4.44-4.44c0.13-0.13,0.24-0.26,0.27-0.44
					c0.04-0.22,0-0.42-0.14-0.59c-0.16-0.19-0.33-0.37-0.52-0.52c-0.27-0.22-0.62-0.23-0.89-0.01c-0.06,0.04-0.11,0.09-0.16,0.14
					c-0.83,0.83-1.66,1.67-2.49,2.5c-0.03,0.03-0.06,0.08-0.12,0.09c-0.03-0.05-0.01-0.11-0.01-0.16c0-2.78,0-5.57,0-8.35
					c0-0.39-0.2-0.67-0.56-0.74c-0.3-0.06-0.62-0.05-0.92,0c-0.35,0.06-0.54,0.34-0.54,0.74c0,2.78,0,5.55,0,8.33
					c0,0.05,0,0.1,0,0.16c-0.07-0.01-0.09-0.06-0.13-0.09c-0.84-0.84-1.69-1.68-2.53-2.52c-0.23-0.23-0.5-0.32-0.81-0.21
					c-0.06,0.02-0.12,0.05-0.16,0.09c-0.2,0.17-0.39,0.35-0.56,0.56c-0.22,0.27-0.21,0.62,0,0.89c0.05,0.06,0.1,0.11,0.15,0.17
					c1.47,1.47,2.94,2.94,4.41,4.42c0.13,0.14,0.28,0.25,0.46,0.32C88.55,125.45,88.66,125.45,88.78,125.45z"/>
			</g>
		</g>
	</g>
</g>
<g>
	<path class="st0" d="M88.78,125.45c0.18-0.06,0.32-0.18,0.46-0.32c1.48-1.48,2.96-2.96,4.44-4.44c0.13-0.13,0.24-0.26,0.27-0.44
		c0.04-0.22,0-0.42-0.14-0.59c-0.16-0.19-0.33-0.37-0.52-0.52c-0.27-0.22-0.62-0.23-0.89-0.01c-0.06,0.04-0.11,0.09-0.16,0.14
		c-0.83,0.83-1.66,1.67-2.49,2.5c-0.03,0.03-0.06,0.08-0.12,0.09c-0.03-0.05-0.01-0.11-0.01-0.16c0-2.78,0-5.57,0-8.35
		c0-0.39-0.2-0.67-0.56-0.74c-0.3-0.06-0.62-0.05-0.92,0c-0.35,0.06-0.54,0.34-0.54,0.74c0,2.78,0,5.55,0,8.33c0,0.05,0,0.1,0,0.16
		c-0.07-0.01-0.09-0.06-0.13-0.09c-0.84-0.84-1.69-1.68-2.53-2.52c-0.23-0.23-0.5-0.32-0.81-0.21c-0.06,0.02-0.12,0.05-0.16,0.09
		c-0.2,0.17-0.39,0.35-0.56,0.56c-0.22,0.27-0.21,0.62,0,0.89c0.05,0.06,0.1,0.11,0.15,0.17c1.47,1.47,2.94,2.94,4.41,4.42
		c0.13,0.14,0.28,0.25,0.46,0.32C88.55,125.45,88.66,125.45,88.78,125.45z"/>
</g>
</svg>
