<?xml version="1.0" encoding="UTF-8"?>
<svg id="Layer_1" data-name="Layer 1" xmlns="http://www.w3.org/2000/svg" viewBox="0 0 200 200">
  <defs>
    <style>
      .cls-1 {
        fill: #08828c;
      }
    </style>
  </defs>
  <path class="cls-1" d="m192.98,87.47c-.73,4.76-1.41,9.53-2.74,14.18-3.72,13.07-10.35,24.42-19.89,34.06-2.59,2.61-6.29,2.74-8.81.4-2.6-2.41-2.77-6.23-.17-8.96,4.07-4.28,7.73-8.84,10.64-13.98,6.86-12.15,9.75-25.19,8.35-39.08-2.82-27.89-21.25-50.42-48.27-57.68-23.39-6.29-44.46-.99-62.61,15.29-.69.62-1.35,1.27-2.06,1.86-2.76,2.3-6.31,2.12-8.65-.43-2.26-2.47-2.21-6.26.26-8.72,3.74-3.71,7.76-7.09,12.18-9.96,12.46-8.1,26.06-12.38,40.95-12.93,38.67-1.42,73.35,26.7,79.87,65.45.34,2.01.64,4.02.96,6.03v14.48Z"/>
  <path class="cls-1" d="m136.23,190.48c-10.18.43-19.01-2.03-27.61-5.43-15.79-6.24-29.78-15.47-42.8-26.23-17.31-14.3-32.37-30.68-44.56-49.6-7.2-11.18-13.18-22.95-16.39-35.96-1.86-7.52-2.74-15.11-.62-22.73,1.62-5.81,4.93-10.24,10.5-12.97,5.84-2.86,11.84-5.3,17.93-7.51,5.15-1.86,10.12,0,12.9,4.76,4.86,8.33,9.68,16.69,14.46,25.06,2.9,5.08,1.48,10.94-3.34,14.22-.66.45-1.37.84-2.06,1.25-9.09,5.52-11.37,16.41-5.05,24.99,8.42,11.44,18.14,21.72,28.61,31.29,4.56,4.17,9.32,8.12,14.25,11.84,9.19,6.94,20.08,4.77,25.96-5.17,3.89-6.57,9.38-8.08,15.99-4.3,7.99,4.57,15.95,9.19,23.9,13.82,5.1,2.97,6.88,7.99,4.82,13.49-2.13,5.67-4.48,11.25-6.98,16.78-3.15,6.96-8.7,10.5-15.92,11.91-1.58.31-3.17.5-3.99.47Z"/>
  <path class="cls-1" d="m93.07,95.89c5.82,0,11.13.15,16.43-.05,4.1-.15,6.86,2.96,6.85,6.21-.01,3.62-2.86,6.26-6.86,6.27-9.45.03-18.89.04-28.34,0-5.82-.03-8.63-4.82-5.9-9.98,3.1-5.85,7.69-10.41,12.73-14.55,3.34-2.75,6.74-5.42,10.08-8.16,2.41-1.97,4.29-4.19,4.12-7.66-.16-3.37-1.45-5.51-4.6-6.65-2.34-.84-4.74-.82-7.09-.06-2.35.76-3.7,2.68-3.78,5.17-.02.8.04,1.61-.02,2.41-.26,3.35-2.96,5.8-6.31,5.77-3.34-.03-5.84-2.58-6.11-5.97-1.24-15.79,13.56-23.04,25.54-19.71,9.09,2.53,14.71,9.43,14.91,18.69.16,7.26-2.98,12.99-8.54,17.49-3.94,3.19-7.86,6.39-11.78,9.59-.33.27-.63.57-1.33,1.2Z"/>
  <path class="cls-1" d="m154.94,67.79c0,4.39.04,8.79-.03,13.18-.02,1.34.34,1.97,1.76,2.23,3.43.63,5.55,3.14,5.49,6.22-.07,3.06-2.11,5.4-5.49,6.03-1.41.26-1.84.9-1.75,2.24.09,1.42.04,2.85.01,4.27-.07,3.54-2.55,6.17-5.96,6.35-3.22.16-6.12-2.49-6.42-5.94-.1-1.17-.04-2.35-.04-3.53q0-3.17-3.08-3.17c-5.8,0-11.61,0-17.41,0-.68,0-1.36,0-2.03-.06-2.58-.27-4.62-1.41-5.61-3.92-.97-2.47-.42-4.72,1.25-6.75,3.82-4.62,7.61-9.27,11.42-13.9,5.37-6.55,10.76-13.08,16.11-19.64,1.56-1.91,3.34-3.36,5.94-3.21,3.42.21,5.79,2.77,5.83,6.25.05,4.45.01,8.91.01,13.36h0Zm-12.44,4.73c-.13-.06-.27-.12-.4-.18-2.8,3.43-5.6,6.85-8.69,10.64,2.98,0,5.38,0,7.78,0,.93,0,1.32-.48,1.32-1.38-.01-3.02,0-6.05,0-9.07Z"/>
</svg>