<?xml version="1.0" encoding="UTF-8"?>
<svg id="Layer_1" data-name="Layer 1" xmlns="http://www.w3.org/2000/svg" viewBox="0 0 200 200">
  <defs>
    <style>
      .cls-1 {
        fill: #08828c;
      }

      .cls-2 {
        fill: #acefef;
      }
    </style>
  </defs>
  <circle class="cls-2" cx="100" cy="100" r="98"/>
  <g>
    <path class="cls-1" d="m62,128.05v-56.11c.31-1.59.8-3.1,1.67-4.48,1.94-3.06,4.74-4.81,8.27-5.47h56.11c1.58.32,3.1.8,4.48,1.67,3.06,1.94,4.81,4.74,5.46,8.27v56.11c-.07.31-.14.62-.22.93-.85,3.48-2.87,6.07-6.02,7.77-1.16.63-2.42.97-3.71,1.24h-56.11c-1.41-.29-2.78-.69-4.03-1.41-3.31-1.91-5.22-4.8-5.91-8.53Zm36.34-40.82c0-2.05.01-4.1,0-6.16-.02-2.96-2-5.02-4.95-5.05-4.13-.04-8.26-.05-12.39,0-2.88.04-4.93,2.04-4.97,4.92-.06,4.18-.06,8.36,0,12.53.04,2.89,2.12,4.85,4.99,4.86,4.13.01,8.26.01,12.39,0,2.94-.01,4.91-1.99,4.93-4.95.02-2.05,0-4.1,0-6.16Zm14.46,11.11c2.03,0,4.06-.07,6.08.02,2.37.11,5.04-1.57,5.09-4.93.06-4.15.06-8.31,0-12.46-.04-2.89-2.07-4.9-4.95-4.94-4.15-.06-8.31-.05-12.46,0-2.92.04-4.89,2.1-4.9,5.02-.01,4.15-.02,8.31,0,12.46.02,2.8,2.03,4.8,4.83,4.83,2.1.02,4.2,0,6.3,0Zm-14.46,14.42c0-2.03,0-4.05,0-6.08-.02-3.05-1.97-5.01-5.01-5.02-4.08-.01-8.16.06-12.24-.03-2.39-.05-5.03,1.65-5.07,4.96-.05,4.13-.05,8.26,0,12.39.03,2.91,2.07,4.96,4.98,4.99,4.13.05,8.26.06,12.39,0,2.99-.04,4.93-2.08,4.95-5.05.01-2.05,0-4.1,0-6.16Zm25.65-4.75c0-1.46.02-2.92,0-4.38-.02-1.31-.68-1.97-1.97-1.97-1.95-.01-3.91-.01-5.86,0-1.23,0-1.91.62-1.9,1.68,0,1.02.7,1.64,1.87,1.65,1.19.01,2.37.03,3.56,0,.63-.02.88.2.87.85-.04,1.43-.05,2.87,0,4.3.03.76-.25,1-.97.99-1.26-.03-2.52-.03-3.78.02-.97.04-1.54.69-1.54,1.64,0,1.02.69,1.68,1.84,1.69,1.9.02,3.81,0,5.71,0,1.51,0,2.16-.65,2.17-2.18.01-1.43,0-2.87,0-4.3Zm-12.61.04h0c0-1.48,0-2.97,0-4.45,0-1.31-.61-1.93-1.89-1.94-2-.01-4-.01-6,0-1.12,0-1.8.63-1.81,1.61-.01,1.03.67,1.7,1.8,1.72,1.04.02,2.08,0,3.11,0q1.44,0,1.44,1.4c0,2.08,0,4.15,0,6.23,0,.63.16,1.18.72,1.54.53.35,1.1.43,1.68.11.62-.33.95-.86.95-1.56,0-1.56,0-3.11,0-4.67Zm-6.37,8.23h0c0-1.11.01-2.23,0-3.34-.02-1.11-.65-1.79-1.64-1.8-1.04-.01-1.69.65-1.69,1.81-.01,3.04-.01,6.08,0,9.12,0,1.15.62,1.85,1.74,1.88,1.95.05,3.91.06,5.86,0,1.18-.04,1.82-.89,1.67-1.99-.12-.86-.81-1.4-1.89-1.42-1.09-.02-2.18-.03-3.26,0-.57.01-.8-.2-.79-.77.02-1.16,0-2.32,0-3.49Zm13.96,4.26h0c-1.04,0-2.07,0-3.11,0-.05,0-.1,0-.15,0-1.13.08-1.85.76-1.84,1.73,0,.94.7,1.67,1.79,1.69,2.17.04,4.35.03,6.52,0,.76-.01,1.39-.36,1.67-1.13.42-1.17-.38-2.22-1.76-2.28-1.04-.04-2.07,0-3.11,0Z"/>
    <path class="cls-1" d="m87.24,79.46c1.98,0,3.95,0,5.93,0,1.3,0,1.82.5,1.82,1.77,0,3.98,0,7.96,0,11.94,0,1.27-.54,1.82-1.81,1.82-4,0-8.01.01-12.01,0-1.2,0-1.71-.54-1.71-1.73,0-4.05,0-8.11,0-12.16,0-1.14.49-1.63,1.62-1.64,2.05,0,4.1,0,6.15,0Z"/>
    <path class="cls-1" d="m112.84,79.46c2,0,4,0,6.01,0,1.23,0,1.69.47,1.7,1.71,0,4.03,0,8.06,0,12.08,0,1.19-.52,1.73-1.72,1.73-4,.01-8.01.01-12.01,0-1.26,0-1.8-.55-1.8-1.82,0-3.98,0-7.96,0-11.94,0-1.28.52-1.77,1.82-1.77,2,0,4,0,6.01,0Z"/>
    <path class="cls-1" d="m79.46,112.76c0-1.98,0-3.95,0-5.93,0-1.3.49-1.82,1.77-1.82,3.98,0,7.96,0,11.94,0,1.27,0,1.82.54,1.82,1.8.01,4,.01,8.01,0,12.01,0,1.2-.54,1.71-1.73,1.72-4.05,0-8.11,0-12.16,0-1.14,0-1.63-.49-1.64-1.62,0-2.05,0-4.1,0-6.15Z"/>
  </g>
</svg>