<?xml version="1.0" encoding="UTF-8"?>
<svg id="Layer_1" data-name="Layer 1" xmlns="http://www.w3.org/2000/svg" viewBox="0 0 200 200">
  <defs>
    <style>
      .cls-1 {
        fill: #08828c;
      }
    </style>
  </defs>
  <path class="cls-1" d="m46.46,2.58c25.83,0,51.65,0,77.48,0,.43.1.85.22,1.29.3,8.5,1.62,15.79,5.44,21.29,12.23,10.13,12.51,20.23,25.04,30.17,37.7,5.63,7.17,8.64,15.31,8.59,24.63-.12,27.97-.01,55.94-.06,83.9-.02,10.6-4.23,19.43-11.9,26.63-5.57,5.24-12.3,8.12-19.75,9.45H46.46c-.49-.11-.98-.23-1.48-.33-19.09-3.62-30.37-20.45-30.27-36.7.24-40.52.06-81.04.09-121.56,0-10.83,4.29-19.8,12.18-27.07,5.52-5.09,12.15-7.88,19.47-9.19Zm99.84,91.02c.11-3.61-.49-7.09-1.63-10.48-6.53-19.37-30.29-26.82-46.27-14.53-2.56,1.97-3.54,5.13-2.4,7.73,1,2.27,3.56,3.43,6.58,3.02,1.05-.14,1.89-.67,2.74-1.23,8.49-5.53,17.93-4.18,24.52,3.5,5.98,6.97,5.96,17.37-.32,23.75-10.88,11.07-21.83,22.07-32.89,32.95-6.87,6.76-17.91,6.6-24.93-.06-7.13-6.77-7.92-17.84-1.42-25.05,4.88-5.4,10.16-10.44,15.39-15.51,2.67-2.59,6.56-2.1,8.83.82,2.17,2.8,1.94,5.9-.81,8.71-4.48,4.57-9.06,9.04-13.53,13.62-3.03,3.1-2.26,7.44,1.55,9.34,2.3,1.15,4.74.67,6.91-1.47,4.28-4.24,8.48-8.55,12.77-12.76,4.19-4.11,6.13-9.07,5.76-14.92-.46-7.41-4.36-12.53-11.05-15.25-6.73-2.73-13.1-1.68-18.44,3.47-5.01,4.84-9.92,9.79-14.77,14.79-5.97,6.15-8.95,13.5-8.78,22.16.31,15.6,13.95,29.34,29.55,29.58,8.74.13,16.19-3.02,22.36-9.19,10.39-10.39,20.71-20.86,31.17-31.18,6.14-6.05,8.93-13.36,9.09-21.82Z"/>
</svg>