<?xml version="1.0" encoding="UTF-8"?>
<svg id="Layer_1" data-name="Layer 1" xmlns="http://www.w3.org/2000/svg" viewBox="0 0 200 200">
  <defs>
    <style>
      .cls-1 {
        fill: #08828c;
      }
    </style>
  </defs>
  <path class="cls-1" d="m149.46,195.82c-5.66-1.06-11.09-2.73-16.08-5.72-15.03-9-22.69-26.55-19.13-44.01,3.4-16.7,17.7-30.05,34.63-32.32,22.59-3.02,42.7,11.81,46.67,34.41.07.43.2.84.3,1.27v10.47c-.1.42-.22.84-.3,1.26-2.4,13.17-9.39,23.09-21.01,29.75-4.54,2.6-9.52,3.91-14.6,4.9h-10.47Zm14.45-35.67c2.87,0,5.73,0,8.6,0,1.14,0,2.24-.17,3.26-.68,2.16-1.08,3.41-3.54,2.93-5.73-.61-2.73-2.67-4.47-5.64-4.53-3.61-.08-7.23-.08-10.85,0-1.52.03-2.1-.44-2.06-2.01.09-3.43.02-6.86.03-10.28,0-1.14-.15-2.24-.65-3.27-1.05-2.16-3.53-3.46-5.7-3-2.8.6-4.56,2.71-4.59,5.78-.05,5.92-.07,11.84,0,17.76.04,3.62,2.39,5.87,6.07,5.94,2.87.05,5.73.01,8.6.01Z"/>
  <path class="cls-1" d="m88.5,64.02c27.17,0,54.34,0,81.52,0q2.75,0,2.76,2.76c0,12.21,0,24.43,0,36.64,0,2.25-.01,2.25-2.19,1.57-30.4-9.48-61.59,9.41-67.28,40.79-1,5.55-1.01,11.14-.16,16.73.42,2.74.35,2.76-2.38,2.76-20.57,0-41.13,0-61.7,0-6.05,0-12.09.03-18.14-.01-9.29-.06-16.71-7.48-16.72-16.81-.03-27.36,0-54.72-.05-82.08,0-1.93.61-2.39,2.45-2.39,27.3.05,54.59.04,81.89.04Zm-49.87,45.15c-1.43,0-2.87-.04-4.3,0-3.39.11-5.95,2.53-5.9,5.53.05,2.96,2.53,5.31,5.83,5.4,2.86.07,5.73.08,8.6,0,3.3-.09,5.78-2.47,5.8-5.43.03-3.01-2.53-5.39-5.93-5.5-1.37-.04-2.74,0-4.11,0Zm33.07,10.94c1.56,0,3.12.07,4.67-.02,3.16-.18,5.59-2.58,5.59-5.45,0-2.86-2.42-5.33-5.58-5.45-2.99-.11-5.98-.1-8.97,0-3.19.1-5.61,2.46-5.69,5.35-.08,2.91,2.42,5.39,5.67,5.56,1.43.07,2.87.01,4.3,0Zm33.48-10.94c-1.5,0-2.99-.06-4.49.01-3.18.15-5.6,2.48-5.67,5.37-.07,2.91,2.43,5.43,5.69,5.54,2.92.1,5.86.09,8.78,0,3.29-.1,5.77-2.52,5.77-5.46,0-2.95-2.49-5.32-5.78-5.46-1.43-.06-2.87,0-4.3,0Zm-33.24-25.11c-1.68,0-3.36-.06-5.04.01-2.88.12-5.2,2.57-5.16,5.37.04,2.76,2.27,5.17,5.08,5.25,3.36.1,6.72.1,10.08,0,2.81-.09,5.03-2.5,5.06-5.27.03-2.81-2.28-5.24-5.17-5.36-1.62-.07-3.24-.01-4.85-.01Zm33.3,10.67c1.62,0,3.24.06,4.85-.01,2.9-.14,5.2-2.58,5.15-5.37-.05-2.85-2.33-5.2-5.26-5.26-3.23-.07-6.47-.07-9.71,0-2.92.07-5.22,2.44-5.25,5.28-.03,2.8,2.27,5.23,5.17,5.36,1.68.08,3.36.01,5.04.01Zm33.18,0c1.68,0,3.36.07,5.04-.02,2.82-.15,5.03-2.5,5.07-5.26.04-2.8-2.27-5.29-5.16-5.36-3.3-.08-6.6-.08-9.9,0-2.89.07-5.2,2.55-5.17,5.35.03,2.75,2.26,5.13,5.07,5.27,1.68.09,3.36.02,5.04.02Zm-99.97,50.5c1.68,0,3.36.06,5.04-.01,2.91-.13,5.2-2.55,5.18-5.35-.03-2.84-2.32-5.22-5.24-5.29-3.23-.07-6.47-.07-9.71,0-2.93.06-5.22,2.41-5.27,5.26-.05,2.79,2.25,5.24,5.15,5.38,1.61.08,3.24.01,4.85.02Zm33.3,0c1.68,0,3.36.06,5.04-.01,2.91-.13,5.2-2.56,5.17-5.36-.03-2.84-2.33-5.21-5.25-5.28-3.23-.07-6.47-.07-9.71,0-2.93.06-5.22,2.42-5.26,5.27-.04,2.79,2.26,5.24,5.16,5.37,1.61.08,3.24.01,4.85.01Z"/>
  <path class="cls-1" d="m76.33,15.39c8.11,0,16.21,0,24.32,0,.11.1.23.2.34.29,0,5.29-.04,10.59-.02,15.88.02,3.58,2.28,6.15,5.37,6.24,3.11.08,5.54-2.59,5.56-6.23.03-5.29,0-10.59-.02-15.88.11-.1.23-.2.34-.3,8.11,0,16.21,0,24.32,0,.11.1.23.2.34.29,0,5.29-.04,10.59-.02,15.88.02,3.58,2.28,6.15,5.37,6.24,3.11.08,5.54-2.59,5.56-6.23.03-5.29,0-10.59-.02-15.88.11-.1.23-.2.34-.3,4.05-.05,8.08-.11,11.95,1.53,7.51,3.17,12.62,10.59,12.68,18.71.04,5.17-.03,10.35.04,15.52.02,1.48-.5,2.06-1.95,1.92-.68-.07-1.37,0-2.06,0-53.54,0-107.08,0-160.61,0-.56,0-1.13-.06-1.68.01-1.79.24-2.38-.48-2.34-2.3.11-5.05,0-10.1.05-15.14.08-10.99,9.18-20.11,20.14-20.23,1.5-.02,2.99,0,4.49-.01.11.1.23.2.34.29,0,5.29-.04,10.59-.02,15.88.02,3.58,2.28,6.15,5.37,6.24,3.11.08,5.54-2.59,5.56-6.23.03-5.29,0-10.59-.02-15.88.11-.1.23-.2.34-.3,8.11,0,16.21,0,24.32,0,.11.1.23.2.34.29,0,5.29-.04,10.59-.02,15.88.02,3.58,2.28,6.15,5.37,6.24,3.11.08,5.54-2.59,5.56-6.23.03-5.29,0-10.59-.02-15.88.11-.1.23-.2.34-.3Z"/>
  <path class="cls-1" d="m28.84,15.39c.02-1.86,0-3.73.06-5.59.09-3.25,2.53-5.62,5.73-5.62,3.2,0,5.63,2.37,5.73,5.62.05,1.86.05,3.73.06,5.59-.11.1-.23.2-.34.3-3.63,0-7.27,0-10.9,0-.11-.1-.23-.2-.34-.29Z"/>
  <path class="cls-1" d="m64.74,15.39c.02-1.86,0-3.73.06-5.59.09-3.25,2.53-5.62,5.73-5.62,3.2,0,5.63,2.37,5.73,5.62.05,1.86.05,3.73.06,5.59-.11.1-.23.2-.34.3-3.63,0-7.27,0-10.9,0-.11-.1-.23-.2-.34-.29Z"/>
  <path class="cls-1" d="m100.65,15.39c.02-1.86,0-3.73.06-5.59.09-3.25,2.53-5.62,5.73-5.62,3.2,0,5.63,2.37,5.73,5.62.05,1.86.05,3.73.06,5.59-.11.1-.23.2-.34.3-3.63,0-7.27,0-10.9,0-.11-.1-.23-.2-.34-.29Z"/>
  <path class="cls-1" d="m136.56,15.39c.02-1.86,0-3.73.06-5.59.09-3.25,2.53-5.62,5.73-5.62,3.2,0,5.63,2.37,5.73,5.62.05,1.86.05,3.73.06,5.59-.11.1-.23.2-.34.3-3.63,0-7.27,0-10.9,0-.11-.1-.23-.2-.34-.29Z"/>
</svg>