<?xml version="1.0" encoding="utf-8"?>
<!-- Generator: Adobe Illustrator 27.4.1, SVG Export Plug-In . SVG Version: 6.00 Build 0)  -->
<svg version="1.1" id="Layer_1" xmlns="http://www.w3.org/2000/svg" xmlns:xlink="http://www.w3.org/1999/xlink" x="0px" y="0px"
	 viewBox="0 0 200 200" style="enable-background:new 0 0 200 200;" xml:space="preserve">
<style type="text/css">
	.st0{fill:#08828C;}
	.st1{fill:#ACEFEF;}
	.st2{fill:#5B5B5B;}
	.st3{fill:#2FAAAD;}
	.st4{fill:#13496B;}
	.st5{fill:#044A4C;}
	.st6{fill:#5AE4A7;}
	.st7{fill:#C3F4E5;}
	.st8{fill:#56D1BD;}
	.st9{fill:none;stroke:#1A2E35;stroke-miterlimit:10;}
	.st10{fill:none;stroke:#1A2E35;stroke-linecap:round;stroke-linejoin:round;stroke-miterlimit:10;}
	.st11{fill:#FFFFFF;stroke:#1A2E35;stroke-miterlimit:10;}
	.st12{fill:none;stroke:#56D1BD;stroke-miterlimit:10;}
	.st13{fill:none;stroke:#1A2E35;stroke-linecap:round;stroke-linejoin:round;}
	.st14{fill:#FFFFFF;stroke:#1A2E35;stroke-linecap:round;stroke-linejoin:round;stroke-miterlimit:10;}
	.st15{fill:#56D1BD;stroke:#1A2E35;stroke-linecap:round;stroke-linejoin:round;stroke-miterlimit:10;}
	.st16{fill:none;stroke:#1A2E35;stroke-linecap:round;stroke-linejoin:round;stroke-dasharray:2.0041,4.0082;}
	.st17{fill:#FFFFFF;}
	.st18{fill:#EFB533;}
	.st19{fill:#EF8456;}
	.st20{fill:#E46449;}
	.st21{fill:#282828;stroke:#FFFFFF;stroke-width:1.5;stroke-miterlimit:10;}
	.st22{fill:#56D1BD;stroke:#1A2E35;stroke-linecap:round;stroke-linejoin:round;}
	.st23{fill:#1A2E35;stroke:#1A2E35;stroke-linecap:round;stroke-linejoin:round;}
	.st24{clip-path:url(#SVGID_00000088101489397775348590000015776962526535332278_);}
	.st25{fill:#32D951;}
	
		.st26{fill:none;stroke:#1A2E35;stroke-width:1.1031;stroke-linecap:round;stroke-linejoin:round;stroke-miterlimit:10;stroke-dasharray:4.4124;}
	.st27{fill:#FFFFFF;stroke:#1A2E35;stroke-width:1.1031;stroke-linecap:round;stroke-linejoin:round;stroke-miterlimit:10;}
	.st28{fill:#1A2E35;}
	.st29{opacity:0.2;fill:#FFFFFF;}
	.st30{fill:#FFFFFF;stroke:#1A2E35;stroke-width:1.1031;stroke-miterlimit:10;}
	.st31{fill:none;stroke:#1A2E35;stroke-width:1.1031;stroke-miterlimit:10;}
	.st32{fill:#5AE4A7;stroke:#1A2E35;stroke-width:1.1031;stroke-miterlimit:10;}
	.st33{opacity:0.2;}
	.st34{fill:#EFB533;stroke:#1A2E35;stroke-width:1.1031;stroke-miterlimit:10;}
	.st35{opacity:0.71;fill:#1A2E35;}
	.st36{fill:#FFFFFF;stroke:#1C1C1B;stroke-width:1.1031;stroke-miterlimit:10;}
	.st37{opacity:0.71;}
	.st38{clip-path:url(#SVGID_00000057850613240002635530000015896183815711878558_);}
</style>
<g>
	<circle class="st1" cx="100" cy="100" r="98"/>
</g>
<g>
	<path class="st0" d="M74.09,56.88c2.21,0.94,2.89,1.96,2.89,4.39c0,2.21-0.02,4.43,0.01,6.64c0.01,0.74-0.26,0.98-0.98,0.97
		c-1.9-0.03-3.81-0.03-5.71,0c-0.72,0.01-0.99-0.22-0.98-0.96c0.04-2.21,0.08-4.43-0.01-6.64c-0.08-2.15,0.75-3.62,2.76-4.4
		C72.74,56.88,73.42,56.88,74.09,56.88z"/>
	<path class="st0" d="M115.33,56.88c1.97,0.74,2.76,2.23,2.73,4.27c-0.03,2.21-0.04,4.43,0.01,6.64c0.02,0.86-0.29,1.12-1.12,1.09
		c-1.76-0.05-3.53-0.06-5.3,0c-0.87,0.03-1.1-0.3-1.09-1.13c0.05-2.24,0.05-4.49,0.01-6.73c-0.04-2.04,0.8-3.44,2.74-4.15
		C113.98,56.88,114.65,56.88,115.33,56.88z"/>
	<path class="st0" d="M93.81,82.4c11.44,0,22.89,0,34.33,0c1.36,0,1.36,0,1.36,1.4c0,3.23,0,6.45,0,9.68c0,0.95-0.08,1.02-0.95,0.65
		c-3.8-1.62-7.78-2.37-11.89-2.15c-7.4,0.39-13.65,3.31-18.7,8.74c-3.5,3.77-5.75,8.2-6.7,13.26c-1.19,6.37-0.26,12.44,2.8,18.16
		c0.09,0.17,0.18,0.35,0.28,0.52c0.27,0.46,0.14,0.68-0.39,0.67c-0.17,0-0.34,0-0.5,0c-9.31,0-18.62,0-27.93,0
		c-1.81,0-3.5-0.35-4.94-1.56c-1.57-1.32-2.41-3-2.5-5.04c-0.05-1.2-0.02-2.41-0.02-3.62c0-13.1,0-26.19,0-39.29
		c0-1.4,0-1.4,1.43-1.4C70.93,82.4,82.37,82.4,93.81,82.4z"/>
	<path class="st0" d="M93.79,79.32c-11.5,0-23,0-34.5,0c-1.24,0-1.24,0-1.24-1.26c0-1.82,0.02-3.65,0-5.47
		c-0.04-3.7,2.66-7.07,7.4-6.98c0.63,0.01,0.82,0.28,0.81,0.87c-0.03,1.12-0.02,2.24,0,3.37c0.02,1.45,0.55,1.99,1.97,2
		c3.28,0.01,6.56,0.01,9.84,0c1.4,0,1.87-0.48,1.89-1.86c0.01-1.09,0-2.19,0-3.28c0.01-1.04,0.05-1.08,1.1-1.09
		c7.01,0,14.02,0,21.03,0c1.49,0,2.97,0.03,4.46-0.01c0.75-0.02,1.07,0.24,1.05,1.02c-0.04,1.2-0.02,2.41,0,3.62
		c0.02,1.14,0.46,1.6,1.59,1.6c3.42,0.02,6.84,0.02,10.26,0c1.11-0.01,1.55-0.49,1.57-1.63c0.02-1.23,0.03-2.47,0-3.7
		c-0.01-0.64,0.21-0.89,0.88-0.91c4.53-0.15,7.6,2.78,7.61,7.29c0,1.77,0,3.53,0,5.3c0,1.11-0.01,1.12-1.13,1.12
		c-11.08,0-22.16,0-33.23,0C94.69,79.32,94.24,79.32,93.79,79.32z"/>
	<path class="st0" d="M117.9,94.95c-13.41-0.04-24.09,10.6-24.12,24.05c-0.03,13.71,11.08,24.15,24.04,24.11
		c13.32,0.02,24.14-10.73,24.13-24.03C141.95,106.04,131.63,95,117.9,94.95z M127.72,114.43c-2.84,4.07-5.67,8.15-8.5,12.23
		c-0.52,0.75-1.03,1.51-1.58,2.24c-0.41,0.55-1.01,0.78-1.69,0.74c-0.51-0.03-0.92-0.26-1.29-0.6c-0.13-0.2-0.26-0.4-0.39-0.6
		c-0.6-1.82-1.21-3.63-1.81-5.45c-0.12-0.38-0.14-0.31,0.19-0.53c1.85-1.19,3.7-2.38,5.56-3.57c0.11-0.07,0.21-0.14,0.3-0.23
		c0.17-0.19,0.19-0.47,0.05-0.68c-0.14-0.21-0.4-0.31-0.64-0.23c-0.12,0.04-0.23,0.1-0.34,0.17c-1.85,1.19-3.7,2.38-5.56,3.57
		c-0.34,0.22-0.27,0.23-0.56-0.04c-1.4-1.3-2.8-2.61-4.2-3.92c-0.13-0.2-0.26-0.4-0.39-0.6c-0.11-0.36-0.17-0.72-0.09-1.1
		c0.14-0.74,0.7-1.45,1.77-1.64c4.92-0.87,9.83-1.75,14.74-2.63c0.92-0.16,1.84-0.35,2.76-0.48c1.12-0.15,2.12,0.72,2.18,1.85
		C128.28,113.5,128.03,113.97,127.72,114.43z"/>
</g>
</svg>
