<?xml version="1.0" encoding="utf-8"?>
<!-- Generator: Adobe Illustrator 27.3.1, SVG Export Plug-In . SVG Version: 6.00 Build 0)  -->
<svg version="1.1" id="Layer_1" xmlns="http://www.w3.org/2000/svg" xmlns:xlink="http://www.w3.org/1999/xlink" x="0px" y="0px"
	 viewBox="0 0 1080 504" style="enable-background:new 0 0 1080 504;" xml:space="preserve">
<style type="text/css">
	.st0{enable-background:new    ;}
	.st1{fill:#444444;}
	.st2{fill:url(#SVGID_1_);}
	.st3{clip-path:url(#SVGID_00000096054311766660560270000012567750611633956784_);}
</style>
<g class="st0">
	<path class="st1" d="M595.5,291.6l-32.7,100.1h-24.9l-22-67.8l-22.7,67.8h-24.7l-32.9-100.1h24l22.6,70.3l23.6-70.3h21.4l22.9,70.9
		l23.3-70.9L595.5,291.6L595.5,291.6z"/>
</g>
<g class="st0">
	<path class="st1" d="M671,370.2h-46.5l-8.9,21.4H592l44.6-100.1h22.9l44.7,100.1h-24.3L671,370.2z M663.7,352.7l-15.9-38.3
		L632,352.7H663.7z"/>
</g>
<g class="st0">
	<path class="st1" d="M821.5,296.1c6.5,3,11.6,7.1,15.1,12.6c3.5,5.4,5.3,11.9,5.3,19.3c0,7.3-1.8,13.7-5.3,19.2s-8.6,9.7-15.1,12.6
		s-14.2,4.4-23.1,4.4h-20.2v27.6H755V291.6h43.3C807.3,291.6,814.9,293.1,821.5,296.1z M813,340.7c3.6-3,5.4-7.3,5.4-12.8
		c0-5.6-1.8-9.9-5.4-12.9c-3.6-3-8.9-4.5-15.9-4.5h-18.9v34.7h18.9C804.1,345.2,809.3,343.7,813,340.7z"/>
</g>
<g class="st0">
	<path class="st1" d="M871.4,387.8c-6.4-3.4-11.5-8.1-15.1-14.1s-5.4-12.8-5.4-20.4s1.8-14.4,5.4-20.4c3.6-6,8.6-10.7,15.1-14.1
		c6.4-3.4,13.7-5.1,21.8-5.1s15.3,1.7,21.7,5.1s11.4,8.1,15,14.1s5.4,12.8,5.4,20.4s-1.8,14.4-5.4,20.4c-3.6,6-8.6,10.7-15,14.1
		s-13.6,5.1-21.7,5.1C885.1,392.8,877.8,391.1,871.4,387.8z M907.2,368.7c3.7-3.9,5.5-9,5.5-15.5s-1.8-11.7-5.5-15.5
		c-3.7-3.9-8.4-5.8-14.1-5.8c-5.7,0-10.4,1.9-14.2,5.8c-3.7,3.9-5.6,9-5.6,15.5s1.9,11.7,5.6,15.5s8.4,5.8,14.2,5.8
		S903.6,372.6,907.2,368.7z"/>
	<path class="st1" d="M957.4,390.5c-6.1-1.6-11-3.5-14.6-5.9l7.4-16c3.4,2.2,7.6,4,12.4,5.4c4.9,1.4,9.6,2.1,14.3,2.1
		c9.4,0,14.2-2.3,14.2-7c0-2.2-1.3-3.8-3.9-4.7c-2.6-1-6.5-1.8-11.9-2.4c-6.3-1-11.5-2-15.6-3.3c-4.1-1.2-7.6-3.4-10.7-6.6
		c-3-3.1-4.5-7.6-4.5-13.4c0-4.9,1.4-9.2,4.2-12.9c2.8-3.8,6.9-6.7,12.3-8.8c5.4-2.1,11.7-3.1,19.1-3.1c5.4,0,10.8,0.6,16.2,1.8
		c5.4,1.2,9.8,2.8,13.4,4.9l-7.4,15.9c-6.8-3.8-14.2-5.7-22.2-5.7c-4.8,0-8.3,0.7-10.7,2s-3.6,3.1-3.6,5.1c0,2.4,1.3,4.1,3.9,5
		c2.6,1,6.7,1.9,12.3,2.7c6.3,1,11.4,2.2,15.4,3.4c4,1.2,7.5,3.4,10.4,6.5c3,3.1,4.4,7.5,4.4,13.2c0,4.8-1.4,9-4.3,12.7
		c-2.9,3.7-7,6.6-12.5,8.6s-12,3.1-19.5,3.1C969.7,392.8,963.4,392,957.4,390.5z"/>
	<path class="st1" d="M1075.7,388c-2.2,1.6-4.9,2.8-8.1,3.6c-3.2,0.8-6.6,1.2-10.1,1.2c-9.1,0-16.2-2.3-21.2-7s-7.5-11.5-7.5-20.6
		v-31.6H1017v-17.2h11.9v-18.7h22.3v18.7h19.2v17.2h-19.2V365c0,3.2,0.8,5.7,2.5,7.5s4,2.6,7.1,2.6c3.5,0,6.5-1,9-2.9L1075.7,388z"
		/>
</g>
<g>
	<g>
		
			<linearGradient id="SVGID_1_" gradientUnits="userSpaceOnUse" x1="868.1038" y1="969.0226" x2="861.7586" y2="653.8801" gradientTransform="matrix(-1 0 0 1 1078.4706 -575.5882)">
			<stop  offset="2.534735e-03" style="stop-color:#5DBAC7"/>
			<stop  offset="1" style="stop-color:#008F99"/>
		</linearGradient>
		<path class="st2" d="M28.7,404.3V253.5c0-4.2,1.6-8.1,4.6-11.1l45.2-45.2l21-21l35.2-35.2l41.1-41.1l0.2,0.2
			c4.9-5.7,11.1-10.2,18.2-13c5.3-2.1,11-3.2,17-3.2s11.7,1.1,17,3.2c4.5,1.8,8.7,4.3,12.4,7.3l0,0l5.5,5.5l0.8,0.8l0,0L390.1,244
			c2.9,2.9,4.6,6.9,4.6,11.1v146l-0.1-0.1c-0.7,15.9-13.8,28.6-29.9,28.6c-6.6,0-12.7-2.1-17.7-5.8l-2.1-2.1l-4.4-4.4l-16.1-16.1
			c2.2,1.7,4.9,2.6,7.8,2.6c0.9,0,1.9-0.1,2.8-0.3c5.1-1.1,9.1-5.2,9.9-10.4c0.1-0.7,0.2-1.4,0.2-2.1s-0.1-1.4-0.2-2.1V275.7
			c0-4.2-1.6-8.1-4.6-11.1L252.7,177l-11.5-11.5c0,0-23.8-23.9-24.4-24.4c-1.6-1.3-3.7-2-6-2c-2,0-3.9,0.6-5.4,1.7l0,0
			c-0.9,0.9-24.6,24.6-24.6,24.6l-11,11l-35.2,35.2L83.1,263c-2.9,2.9-4.6,6.9-4.6,11.1v114.7c-0.3,0.8-0.1,3.9,0,4.6
			c0.9,5,4.7,9,9.5,10.2c1,0.2,2,0.4,3.1,0.4c3,0,5.8-1,8-2.8l-18,18l0,0l-2.6,2.6l-0.7,0.7l0,0c-5.2,4.5-12,7.1-19.4,7.1
			C43.4,429.6,31,418.6,28.7,404.3z"/>
	</g>
	<g>
		<defs>
			<path id="SVGID_00000035526095945456168510000005527044260253395363_" d="M78.5,393.4v-42c0,0,102-102,104-104
				c7.6-7.6,18.1-12.3,29.7-12.3c9.2,0,17.7,3,24.6,8l0,0L345,351.4v41.9c-0.9,5.2-4.8,9.3-9.9,10.4c-0.9,0.2-1.8,0.3-2.8,0.3
				c-2.9,0-5.6-1-7.8-2.6l-2.4-2.4l-86.8-87c0,0-17.2-17.8-18.7-18.7c-1.4-0.8-3.1-1.3-4.8-1.3c-1.9,0-3.6,0.5-5.1,1.5l0,0
				c-1.3,0.8-18.2,18.2-18.2,18.2L101.2,399l0,0l-2.1,2.1c-2.2,1.7-5,2.8-8,2.8c-1.1,0-2.1-0.1-3.1-0.4
				C83.2,402.3,79.4,398.4,78.5,393.4z"/>
		</defs>
		
			<linearGradient id="SVGID_00000036252997727075864620000018358843848909495957_" gradientUnits="userSpaceOnUse" x1="209.5728" y1="220.5391" x2="212.6366" y2="434.2412">
			<stop  offset="2.534735e-03" style="stop-color:#5DBAC7"/>
			<stop  offset="1" style="stop-color:#008F99"/>
		</linearGradient>
		
			<use xlink:href="#SVGID_00000035526095945456168510000005527044260253395363_"  style="overflow:visible;fill:url(#SVGID_00000036252997727075864620000018358843848909495957_);"/>
		<clipPath id="SVGID_00000033351554348908253220000012379592290318362244_">
			<use xlink:href="#SVGID_00000035526095945456168510000005527044260253395363_"  style="overflow:visible;"/>
		</clipPath>
		<g style="clip-path:url(#SVGID_00000033351554348908253220000012379592290318362244_);">
			<g>
				<g>
					<defs>
						<rect id="SVGID_00000087384192586383671810000015191164448116387221_" x="73.5" y="230.1" width="276.5" height="178.8"/>
					</defs>
					<clipPath id="SVGID_00000093149204439182556330000005377000938795508663_">
						<use xlink:href="#SVGID_00000087384192586383671810000015191164448116387221_"  style="overflow:visible;"/>
					</clipPath>
				</g>
			</g>
		</g>
	</g>
</g>
</svg>
